<svg width="128" height="94" viewBox="0 0 128 94" fill="none" xmlns="http://www.w3.org/2000/svg">
<g clip-path="url(#clip0_43_768)">
<g clip-path="url(#clip1_43_768)">
<g clip-path="url(#clip2_43_768)">
<path d="M107.395 45.2746C97.3756 46.8579 92.1143 43.7196 90.802 35.4319L87.8702 16.8916C86.5519 8.54549 90.5875 3.93484 100.606 2.35162L115.154 0.0523384C116.644 -0.183331 117.403 0.369585 117.639 1.85914L118.78 9.07223C119.015 10.5618 118.463 11.3212 116.972 11.5568L104.987 13.4502C102.482 13.844 101.501 14.9781 101.82 17.0064L104.063 31.1949C104.373 33.1619 105.649 33.8779 108.154 33.4811L120.138 31.5877C121.629 31.353 122.387 31.905 122.624 33.3945L123.747 40.4888C123.982 41.9783 123.43 42.7387 121.94 42.9733L107.395 45.2746Z" fill="#3F2E56"/>
<path d="M16.0899 34.5327L20.5616 33.8257C22.6494 33.4954 22.9969 32.2194 22.7431 30.6089L22.4238 28.5816C22.168 26.9732 21.4428 25.8643 19.3571 26.1947L14.8854 26.9027L16.0899 34.5327ZM8.64722 60.8854C7.15666 61.1201 6.39728 60.5681 6.1596 59.0786L0.0523386 20.446C-0.183331 18.9564 0.369586 18.197 1.85914 17.9624L21.7138 14.8231C30.6581 13.4091 34.1015 17.0197 35.0341 22.9215L35.4682 25.6639C35.9949 29.0036 35.5387 31.5194 33.2021 32.9888C37.6305 32.7783 40.9913 35.4845 41.7829 40.492L43.7821 53.1295C44.0167 54.619 43.4648 55.3784 41.9753 55.6131L32.7318 57.0734C31.2423 57.3091 30.4829 56.7561 30.2472 55.2666L28.805 46.147C28.523 44.3583 27.8039 43.6785 26.1341 43.9434L17.7849 45.2617L19.633 56.9455C19.8687 58.435 19.3158 59.1954 17.8262 59.4301L8.64722 60.8854Z" fill="#3F2E56"/>
<path d="M88.0555 56.4926C88.1582 57.1402 87.711 57.7565 87.0624 57.8582L53.406 63.1789C52.7585 63.2806 52.1421 62.8345 52.0394 62.1859L50.6475 53.3876C50.5448 52.74 50.9919 52.1236 51.6405 52.0209L85.2969 46.7012C85.9445 46.5985 86.5589 47.0457 86.6606 47.6932L88.0555 56.4926Z" fill="#6E6EB4"/>
<path d="M64.4175 31.3749C60.6599 31.9681 57.1319 29.4039 56.5387 25.6473C55.9455 21.8897 58.5107 18.3627 62.2663 17.7705C66.0239 17.1773 69.5519 19.7415 70.1441 23.4981C70.7403 27.2557 68.1751 30.7817 64.4175 31.3749ZM60.0899 4.00505C48.7264 5.80076 40.9735 16.4653 42.7692 27.8258C44.5649 39.1862 55.2315 46.9381 66.5939 45.1424C77.9574 43.3467 85.7103 32.6822 83.9146 21.3217C82.1189 9.96123 71.4524 2.20731 60.0899 4.00505Z" fill="#3F2E56"/>
<path d="M11.622 92.4207L8.92285 75.378L10.4084 75.1433L24.5153 88.084L23.7358 88.2079L21.3902 73.405L23.1667 73.124L25.8659 90.1667L24.3813 90.4024L10.3006 77.4537L11.0811 77.3308L13.4268 92.1337L11.622 92.4207Z" fill="#3F2E56"/>
<path d="M29.4607 73.5965C29.1021 73.6539 28.7829 73.5784 28.5019 73.3749C28.2189 73.1705 28.0527 72.8965 27.9973 72.5561C27.9429 72.2167 28.0205 71.9085 28.2259 71.6346C28.4314 71.3606 28.7144 71.1965 29.0699 71.1401C29.4285 71.0827 29.7457 71.1491 30.0267 71.3385C30.3047 71.5278 30.4739 71.7917 30.5262 72.1321C30.5826 72.4906 30.5121 72.8069 30.3157 73.0879C30.1193 73.3689 29.8343 73.5371 29.4607 73.5965ZM31.055 89.344L29.0296 76.5595L30.7589 76.2865L32.7852 89.0701L31.055 89.344Z" fill="#3F2E56"/>
<path d="M36.4748 93.452C35.9541 93.5345 35.4455 93.5436 34.9439 93.4822C34.4444 93.4197 34.0083 93.2767 33.6387 93.0501L34.0405 91.6411C34.6287 91.9967 35.3296 92.1105 36.1414 91.9826C36.8232 91.8758 37.3147 91.5888 37.6158 91.1255C37.917 90.6622 38.0036 90.0327 37.8777 89.2361L35.7033 75.5038L37.4325 75.2299L39.6069 88.9632C39.7943 90.1465 39.6231 91.1436 39.0943 91.9513C38.5666 92.7591 37.6934 93.2586 36.4748 93.452ZM36.1323 72.5398C35.7738 72.5972 35.4545 72.5217 35.1745 72.3193C34.8915 72.1138 34.7244 71.8399 34.67 71.4995C34.6146 71.1601 34.6921 70.8519 34.8976 70.5779C35.103 70.305 35.386 70.1378 35.7446 70.0834C36.1001 70.026 36.4194 70.0925 36.7004 70.2818C36.9793 70.4712 37.1455 70.7361 37.1999 71.0755C37.2573 71.434 37.1868 71.7513 36.9904 72.0312C36.792 72.3122 36.507 72.4804 36.1323 72.5398Z" fill="#3F2E56"/>
<path d="M58.209 71.815C59.2474 71.6508 60.185 71.7052 61.0179 71.9812C61.8528 72.2571 62.5487 72.7667 63.1077 73.51C63.6667 74.2532 64.0433 75.2412 64.2387 76.476L65.4161 83.9006L63.6868 84.1745L62.5367 76.9181C62.3252 75.5696 61.8407 74.6027 61.0904 74.0146C60.3401 73.4254 59.3793 73.223 58.211 73.4093C57.3348 73.5493 56.6046 73.8524 56.0205 74.3177C55.4364 74.783 55.0255 75.3893 54.7868 76.1356C54.5471 76.8819 54.5038 77.7389 54.6589 78.7138L55.7244 85.4334L53.9942 85.7074L52.845 78.451C52.6325 77.1024 52.144 76.1356 51.3867 75.5494C50.6273 74.9633 49.6645 74.7629 48.4962 74.9472C47.6351 75.0841 46.91 75.3853 46.3168 75.8526C45.7256 76.3209 45.3106 76.9272 45.0689 77.6735C44.8292 78.4188 44.7859 79.2768 44.941 80.2507L46.0066 86.9713L44.2773 87.2453L42.251 74.4617L43.9077 74.1989L44.4546 77.6574L44.09 77.0914C44.3337 76.1034 44.8474 75.2805 45.6319 74.6138C46.4175 73.9501 47.4025 73.5241 48.5869 73.3347C49.8377 73.1363 50.9486 73.2814 51.9255 73.7658C52.9014 74.2512 53.6185 75.1002 54.0747 76.3068L53.3516 76.1467C53.5611 75.0499 54.0878 74.1052 54.9368 73.3136C55.7879 72.527 56.8786 72.0275 58.209 71.815Z" fill="#3F2E56"/>
<path d="M75.5653 82.4198C74.2359 82.6303 73.0213 82.5366 71.9265 82.1348C70.8308 81.7339 69.9213 81.0874 69.1972 80.1961C68.4741 79.3037 68.0108 78.2251 67.8104 76.9591C67.6099 75.6932 67.7036 74.5289 68.0934 73.4684C68.4831 72.4079 69.1086 71.5226 69.9687 70.8136C70.8287 70.1036 71.853 69.6544 73.0374 69.4671C74.2399 69.2777 75.3488 69.3804 76.369 69.7752C77.3882 70.1721 78.2443 70.8176 78.9352 71.714C79.6271 72.6113 80.0742 73.7011 80.2777 74.9831C80.2908 75.0657 80.2998 75.1503 80.3049 75.241C80.3119 75.3326 80.321 75.4263 80.3371 75.524L69.2063 77.2854L69.0018 75.9943L79.2051 74.3788L78.6048 74.9992C78.4588 74.0727 78.1305 73.2821 77.6168 72.6224C77.1032 71.9627 76.4757 71.4843 75.7295 71.1872C74.9842 70.8911 74.1644 70.8106 73.27 70.9526C72.3938 71.0916 71.6385 71.4199 71.005 71.9355C70.3705 72.4512 69.9163 73.1058 69.6423 73.8995C69.3684 74.6911 69.305 75.5582 69.455 76.5009L69.4983 76.7678C69.6534 77.7417 70.0029 78.5645 70.5508 79.2332C71.0987 79.904 71.7896 80.3854 72.6265 80.6775C73.4644 80.9695 74.3769 81.035 75.3669 80.8799C76.1474 80.757 76.8504 80.5042 77.4799 80.1205C78.1093 79.7378 78.623 79.2242 79.0198 78.5786L80.1719 79.5434C79.7117 80.3149 79.0842 80.9484 78.2876 81.4389C77.498 81.9293 76.5906 82.2587 75.5653 82.4198Z" fill="#3F2E56"/>
<path d="M89.8877 79.5276C88.6691 79.7189 87.533 79.6303 86.4745 79.2566C85.415 78.882 84.5328 78.2707 83.8227 77.4176C83.1137 76.5646 82.6635 75.5293 82.4702 74.3126C82.2758 73.095 82.3855 71.9771 82.7985 70.9549C83.2114 69.9326 83.864 69.0846 84.7533 68.4118C85.6456 67.7381 86.7001 67.305 87.9187 67.1106C89.0548 66.9314 90.1153 67.0039 91.0993 67.3302C92.0822 67.6565 92.9151 68.2406 93.597 69.0796C94.2798 69.9215 94.727 71.0052 94.9365 72.3376C95.1469 73.6671 95.0573 74.8404 94.6696 75.8485C94.2798 76.8587 93.6705 77.6775 92.8376 78.3099C92.0067 78.9434 91.0237 79.3473 89.8877 79.5276ZM89.8142 77.9675C90.7568 77.8195 91.5595 77.4881 92.2283 76.9725C92.897 76.4598 93.3855 75.8163 93.6957 75.0428C94.0059 74.2693 94.0874 73.4213 93.9424 72.4948C93.7964 71.5682 93.456 70.7907 92.9222 70.1592C92.3884 69.5287 91.7267 69.0705 90.9321 68.7905C90.1385 68.5075 89.2713 68.441 88.3287 68.5921C87.4031 68.7371 86.6044 69.0685 85.9286 69.5841C85.2539 70.0998 84.7624 70.7383 84.4592 71.4997C84.1561 72.2641 84.0785 73.1081 84.2246 74.0347C84.3706 74.9612 84.708 75.7428 85.2327 76.3843C85.7574 77.0248 86.4221 77.4861 87.2248 77.7671C88.0255 78.0471 88.8886 78.1136 89.8142 77.9675ZM91.0489 84.811C89.8806 84.9963 88.7325 85.0023 87.6085 84.8311C86.4836 84.6609 85.5359 84.3115 84.7725 83.7827L85.4402 82.3294C86.125 82.7695 86.9348 83.0797 87.8704 83.255C88.806 83.4312 89.7688 83.4423 90.7589 83.2852C92.3834 83.0274 93.5154 82.4614 94.1589 81.5851C94.8025 80.7099 94.9979 79.4752 94.7451 77.8849L94.2385 74.6963L94.1358 72.4676L93.6181 70.3022L93.0038 66.4318L94.6605 66.1689L96.4381 77.3924C96.7876 79.6011 96.5046 81.3052 95.5891 82.5067C94.6716 83.7092 93.1589 84.4756 91.0489 84.811Z" fill="#3F2E56"/>
<path d="M106.957 77.4495C105.626 77.6589 104.413 77.5653 103.317 77.1644C102.222 76.7646 101.312 76.117 100.589 75.2247C99.8654 74.3334 99.4021 73.2537 99.2017 71.9878C99.0003 70.7218 99.0939 69.5586 99.4837 68.4981C99.8745 67.4365 100.5 66.5523 101.36 65.8423C102.22 65.1332 103.244 64.683 104.429 64.4967C105.631 64.3044 106.74 64.4101 107.759 64.8049C108.78 65.2017 109.636 65.8473 110.327 66.7436C111.017 67.64 111.466 68.7307 111.668 70.0128C111.682 70.0944 111.691 70.179 111.695 70.2706C111.702 70.3613 111.711 70.4549 111.727 70.5506L100.6 72.3121L100.394 71.0209L110.598 69.4055L109.998 70.0259C109.852 69.1003 109.521 68.3087 109.01 67.649C108.497 66.9894 107.869 66.511 107.123 66.2119C106.377 65.9158 105.558 65.8352 104.663 65.9772C103.787 66.1162 103.032 66.4445 102.397 66.9602C101.764 67.4758 101.31 68.1305 101.036 68.9241C100.762 69.7157 100.698 70.5828 100.848 71.5245L100.892 71.7914C101.047 72.7663 101.396 73.5891 101.944 74.2579C102.491 74.9286 103.183 75.41 104.02 75.7021C104.858 75.9942 105.77 76.0596 106.76 75.9045C107.541 75.7816 108.244 75.5289 108.873 75.1451C109.503 74.7624 110.016 74.2488 110.413 73.6032L111.565 74.5681C111.105 75.3395 110.478 75.971 109.681 76.4635C108.889 76.959 107.979 77.2873 106.957 77.4495Z" fill="#3F2E56"/>
<path d="M120.697 61.9204C121.734 61.7562 122.679 61.8116 123.53 62.0825C124.381 62.3565 125.093 62.8631 125.668 63.6043C126.243 64.3456 126.629 65.3336 126.822 66.5653L127.999 73.9909L126.27 74.2648L125.12 67.0084C124.905 65.6599 124.409 64.695 123.625 64.1129C122.843 63.5318 121.844 63.3354 120.625 63.5268C119.715 63.6708 118.953 63.978 118.337 64.4503C117.721 64.9227 117.285 65.532 117.03 66.2803C116.774 67.0286 116.721 67.8887 116.877 68.8626L117.942 75.5832L116.213 75.8571L114.187 63.0726L115.843 62.8107L116.397 66.3165L116.026 65.7012C116.283 64.7132 116.82 63.8823 117.628 63.2146C118.442 62.5478 119.464 62.1148 120.697 61.9204Z" fill="#3F2E56"/>
</g>
</g>
</g>
<defs>
<clipPath id="clip0_43_768">
<rect width="128" height="93.53" fill="white"/>
</clipPath>
<clipPath id="clip1_43_768">
<rect width="128" height="93.53" fill="white"/>
</clipPath>
<clipPath id="clip2_43_768">
<rect width="128" height="93.5385" fill="white"/>
</clipPath>
</defs>
</svg>
